<?xml version="1.0" encoding="utf-8"?>
<!-- Generator: Adobe Illustrator 17.0.0, SVG Export Plug-In . SVG Version: 6.00 Build 0)  -->
<!DOCTYPE svg PUBLIC "-//W3C//DTD SVG 1.1//EN" "http://www.w3.org/Graphics/SVG/1.1/DTD/svg11.dtd">
<svg version="1.1" id="图层_1" xmlns="http://www.w3.org/2000/svg" xmlns:xlink="http://www.w3.org/1999/xlink" x="0px" y="0px"
	 width="1024px" height="323.744px" viewBox="0 0 1024 323.744" enable-background="new 0 0 1024 323.744" xml:space="preserve">
<g>
	<path fill="#898989" d="M232.345,107.1V93.843H92.101V107.1H232.345z M92.101,48.139V61.4h140.243V48.139H92.101z M293.397,157.686
		c0,1.394-0.232,4.884-0.7,10.467c-0.462,5.584-0.989,12.208-1.568,19.886c-0.584,7.673-1.278,15.755-2.095,24.243
		c-0.815,8.49-1.509,16.456-2.094,23.898c-0.579,7.446-1.161,13.782-1.74,19.012c-0.586,5.237-0.875,8.315-0.875,9.247
		c-1.163,8.84-2.789,15.991-4.882,21.453c-2.094,5.469-5.174,9.889-9.247,13.262c-4.068,3.367-9.187,5.872-15.349,7.498
		c-6.164,1.626-13.899,2.79-23.199,3.49l-32.794,2.788l-12.56-39.769l27.211-2.794c5.815-0.694,10.524-1.337,14.13-1.916
		c3.603-0.583,6.456-1.63,8.546-3.141c2.094-1.509,3.668-3.605,4.709-6.278c1.047-2.677,1.922-6.34,2.622-10.992
		c0.693-4.652,1.451-9.652,2.268-14.998c0.809-5.352,1.567-10.467,2.26-15.351c0.7-4.882,1.285-9.36,1.749-13.433
		c0.462-4.069,0.815-7.153,1.047-9.241h-26.517c-4.414,13.719-9.825,26.454-16.22,38.2c-6.397,11.746-14.069,22.849-23.028,33.316
		c-8.951,10.467-19.418,20.408-31.394,29.827c-11.977,9.42-25.759,18.55-41.34,27.384l-26.165-32.79
		c13.487-7.446,25.348-14.655,35.584-21.633c10.229-6.978,19.07-14.245,26.512-21.802c7.441-7.556,13.839-15.581,19.186-24.069
		c5.35-8.495,10.12-17.972,14.302-28.433h-27.559c-6.508,11.393-13.839,21.917-21.975,31.569
		c-8.142,9.652-17.387,18.724-27.738,27.212s-22.038,16.628-35.063,24.423c-13.025,7.788-27.674,15.523-43.957,23.202L0,268.274
		c26.744-10.929,48.899-22.439,66.458-34.537c17.56-12.093,31.459-25.001,41.688-38.72H78.147
		c-6.746,6.741-13.957,13.372-21.629,19.88c-7.677,6.516-15.934,13.14-24.769,19.886L6.626,203.036
		c13.262-8.372,25.295-17.677,36.111-27.906c10.813-10.237,20.176-21.05,28.083-32.449H50.587V12.208h223.271v130.474H105.012
		l10.813,4.884c-1.164,1.862-2.268,3.605-3.315,5.235c-1.047,1.626-2.152,3.258-3.315,4.884H293.397z"/>
	<path fill="#898989" d="M444.841,285.371c6.278-4.19,12.853-9.072,19.713-14.651c6.862-5.582,13.604-11.571,20.233-17.97
		c6.632-6.393,12.967-12.909,19.014-19.533c6.046-6.631,11.398-12.967,16.05-19.014l30.347,27.906
		c-5.346,6.746-11.103,13.493-17.267,20.233c-6.166,6.746-12.56,13.32-19.19,19.713c-6.625,6.399-13.43,12.561-20.408,18.492
		c-6.978,5.931-13.956,11.45-20.932,16.57L444.841,285.371z M596.95,213.156c5.815,5.114,12.093,10.756,18.84,16.918
		c6.741,6.163,13.429,12.388,20.06,18.667c6.624,6.278,12.908,12.44,18.84,18.492c5.929,6.046,10.986,11.508,15.171,16.392
		l-29.3,34.188c-3.958-5.114-8.843-11.044-14.656-17.792c-5.815-6.741-12.036-13.545-18.662-20.406
		c-6.629-6.863-13.26-13.546-19.886-20.061c-6.63-6.509-12.734-12.093-18.317-16.745L596.95,213.156z M536.243,103.962v66.631
		h45.356v-66.631H536.243z M493.683,62.443V4.882l42.561,1.743v55.817h45.356V4.882l42.215,1.743v55.817h32.094v41.519h-32.094
		v66.631h43.604v42.215H455.656v-42.215h38.026v-66.631h-28.606V62.443H493.683z M465.429,13.255
		c-3.958,13.257-7.968,25.702-12.041,37.325c-4.067,11.63-8.43,22.912-13.081,33.843v231.301h-42.563V162.57
		c-3.021,4.65-6.162,9.245-9.419,13.78c-3.251,4.537-6.624,9.126-10.114,13.779l-24.769-38.722
		c6.277-8.372,12.792-18.317,19.533-29.831c6.746-11.51,13.26-23.956,19.54-37.326c6.278-13.372,12.208-27.271,17.792-41.69
		c5.583-14.423,10.35-28.611,14.302-42.561L465.429,13.255z"/>
	<path fill="#898989" d="M882.012,152.454c-5.346,9.299-11.278,19.071-17.792,29.302c-6.511,10.235-13.025,19.886-19.533,28.958
		c-6.516,9.067-12.62,17.15-18.32,24.243c-5.699,7.093-10.292,12.271-13.783,15.523c8.379-0.694,17.445-1.394,27.212-2.089
		c9.773-0.7,19.943-1.457,30.527-2.268c10.582-0.815,21.223-1.632,31.921-2.441c10.698-0.817,21.048-1.574,31.053-2.269
		c-5.583-8.84-11.282-17.677-17.098-26.517c-5.814-8.835-11.745-17.675-17.792-26.512l36.978-21.627
		c12.562,17.675,25.238,36.516,38.027,56.512c12.792,20.003,25.816,41.283,39.072,63.843l-36.278,26.517
		c-3.026-5.352-5.989-10.524-8.9-15.523c-2.903-5.005-5.872-10.062-8.892-15.176c-6.977,0.462-15.176,0.988-24.596,1.567
		c-9.419,0.585-19.539,1.279-30.353,2.094c-10.815,0.817-21.976,1.626-33.489,2.443c-11.514,0.815-22.792,1.626-33.843,2.441
		c-11.046,0.815-21.57,1.626-31.569,2.441c-10.003,0.817-18.84,1.574-26.517,2.269c-4.882,0.462-9.246,0.874-13.083,1.221
		c-3.836,0.347-7.73,0.872-11.687,1.567l-12.557-44.651c3.021-1.162,5.636-2.324,7.847-3.488c2.209-1.162,4.189-2.441,5.931-3.835
		c1.746-1.4,3.49-2.968,5.236-4.71c1.742-1.749,3.893-3.668,6.452-5.759c3.72-3.488,8.14-8.198,13.257-14.13
		c5.119-5.929,10.466-12.676,16.049-20.233c5.584-7.561,11.22-15.587,16.919-24.074c5.699-8.489,10.992-17.035,15.877-25.639
		H727.462v-43.608H1024v43.608H882.012z M993.999,60.353H757.467V16.745h236.533V60.353z"/>
</g>
</svg>
