<?xml version="1.0" encoding="utf-8"?>
<!-- Generator: Adobe Illustrator 17.0.0, SVG Export Plug-In . SVG Version: 6.00 Build 0)  -->
<!DOCTYPE svg PUBLIC "-//W3C//DTD SVG 1.1//EN" "http://www.w3.org/Graphics/SVG/1.1/DTD/svg11.dtd">
<svg version="1.1" id="图层_1" xmlns="http://www.w3.org/2000/svg" xmlns:xlink="http://www.w3.org/1999/xlink" x="0px" y="0px"
	 width="1024px" height="776.106px" viewBox="0 0 1024 776.106" enable-background="new 0 0 1024 776.106" xml:space="preserve">
<g>
	<path fill="#FFFFFF" d="M637.863,370.043c-95.708,37.924-60.446,18.447-175.476,102.356c-6.534,11.063-57.511,48.92-65.45,48.659
		c-0.079,0.093-17.168-3.065-18.255-27.107c1.748-78.855,105.46-142.776,150.909-171.409
		C667.865,204.662,544.191,51.985,417.468,132.3c-7.345,4.018-85.358,48.593-61.277,167.866c1.489,12.547-0.741,0.388,2.19,19.724
		c28.036-2.815,40.737,0.274,67.783,3.6c10.095,1.4,24.135,3.854,36.03,7.36c15.371,4.534,13.419,29.095-7.221,33.326
		l-78.186,20.719c-106.581,33.664-132.499,46.849-203.523,107.572c-99.805,96.4-19.256,201.895,137.01,154.116
		c0.449-0.286,117.572-44.504,237.379-185.903c4.635-7.631,20.441-36.968,44.906-35.796c38.206,8.128,19.974,46.655,7.256,76.455
		c-2.199,4.326-43.272,105.712-144.949,166.435c32.077,21.089,151.937-0.732,159.271-1.78
		C941.506,570.209,949.101,314.463,637.863,370.043 M294.995,326.917c-8.347-20.825-55.202-133.877,19.769-236.246
		c73.56-107.554,217.888-111.06,294.095-54.131c-0.586,0.18,115.163,69.01,93.563,225.599
		c368.704-16.399,471.887,358.263,33.614,496.264c-112.599,29.865-233.753,22.774-324.848-27.596
		C203.818,812.741-46.43,738.603,7.411,541.546c31.399-92.567,107.241-145.932,191.137-185.477
		C219.264,345.143,272.514,331.53,294.995,326.917z"/>
</g>
</svg>
