<?xml version="1.0" encoding="utf-8"?>
<!-- Generator: Adobe Illustrator 17.0.0, SVG Export Plug-In . SVG Version: 6.00 Build 0)  -->
<svg version="1.2" baseProfile="tiny" id="图层_1"
	 xmlns="http://www.w3.org/2000/svg" xmlns:xlink="http://www.w3.org/1999/xlink" x="0px" y="0px" width="56.693px"
	 height="54.659px" viewBox="0 0 56.693 54.659" xml:space="preserve">
<g>
	<path fill="#0081CC" d="M45.101,27.836H33.167c-1.399,0-2.532-1.134-2.532-2.532c0-1.399,1.134-2.532,2.532-2.532h11.934
		c1.399,0,2.532,1.134,2.532,2.532C47.633,26.702,46.499,27.836,45.101,27.836z"/>
	<path fill="#00A73C" d="M17.256,33.5c-4.519,0-8.196-3.678-8.196-8.197s3.677-8.196,8.196-8.196s8.196,3.677,8.196,8.196
		S21.775,33.5,17.256,33.5z M17.256,22.172c-1.727,0-3.132,1.405-3.132,3.132c0,1.727,1.405,3.133,3.132,3.133
		c1.727,0,3.132-1.406,3.132-3.133C20.388,23.577,18.983,22.172,17.256,22.172z"/>
	<g>
		<path fill="#FDD000" d="M28.347,54.659C12.716,54.659,0,41.943,0,26.312V14.757c0-1.399,1.134-2.532,2.532-2.532
			s2.532,1.134,2.532,2.532v11.555c0,12.838,10.445,23.283,23.282,23.283S51.629,39.15,51.629,26.312
			c0-1.399,1.134-2.532,2.532-2.532s2.532,1.134,2.532,2.532C56.693,41.943,43.977,54.659,28.347,54.659z"/>
		<path fill="#E60012" d="M54.161,21.842c-1.399,0-2.532-1.134-2.532-2.532v-4.466c0-3.489-0.703-5.876-2.151-7.299
			c-2.698-2.653-8.675-2.549-15.598-2.433c-3.101,0.054-6.505,0.055-9.675,0C16.707,4.987,10.232,4.88,7.245,7.817
			c-1.467,1.443-2.181,3.742-2.181,7.027c0,1.399-1.134,2.532-2.532,2.532S0,16.243,0,14.844c0-4.714,1.208-8.193,3.694-10.638
			c4.501-4.426,11.961-4.3,20.595-4.157c3.113,0.051,6.457,0.051,9.504-0.001c8.061-0.135,15.022-0.256,19.234,3.886
			c2.466,2.424,3.665,5.993,3.665,10.91v4.466C56.693,20.709,55.559,21.842,54.161,21.842z"/>
	</g>
</g>
</svg>
