<?xml version="1.0" encoding="utf-8"?>
<!-- Generator: Adobe Illustrator 17.0.0, SVG Export Plug-In . SVG Version: 6.00 Build 0)  -->
<!DOCTYPE svg PUBLIC "-//W3C//DTD SVG 1.1//EN" "http://www.w3.org/Graphics/SVG/1.1/DTD/svg11.dtd">
<svg version="1.1" id="图层_1" xmlns="http://www.w3.org/2000/svg" xmlns:xlink="http://www.w3.org/1999/xlink" x="0px" y="0px"
	 width="1024px" height="776.106px" viewBox="0 0 1024 776.106" enable-background="new 0 0 1024 776.106" xml:space="preserve">
<g>
	<g>
		<defs>
			<path id="SVGID_1_" d="M-450.136,260.131c-95.712,37.924-60.446,18.451-175.48,102.359c-6.534,11.063-57.512,48.92-65.446,48.66
				c-0.079,0.093-17.172-3.066-18.257-27.111c1.75-78.857,105.457-142.778,150.909-171.405
				c138.271-117.881,14.6-270.556-112.126-190.243c-7.34,4.017-85.358,48.59-61.273,167.867c1.485,12.547-0.744,0.382,2.186,19.722
				c28.041-2.815,40.738,0.274,67.783,3.599c10.094,1.402,24.138,3.856,36.029,7.362c15.376,4.534,13.421,29.09-7.221,33.319
				l-78.18,20.726c-106.585,33.662-132.498,46.848-203.522,107.57c-99.809,96.394-19.261,201.896,137.01,154.117
				c0.444-0.286,117.572-44.506,237.377-185.903c4.636-7.63,20.438-36.967,44.907-35.799c38.205,8.128,19.97,46.66,7.257,76.459
				c-2.199,4.327-43.277,105.709-144.949,166.434c32.072,21.086,151.932-0.735,159.266-1.78
				C-146.495,460.295-138.899,204.554-450.136,260.131 M-793.005,217.009c-8.349-20.826-55.199-133.877,19.771-236.246
				c73.562-107.558,217.889-111.066,294.091-54.133c-0.581,0.182,115.163,69.009,93.562,225.598
				c368.709-16.397,471.892,358.262,33.62,496.264c-112.603,29.861-233.753,22.768-324.852-27.596
				c-207.366,81.934-457.613,7.792-403.777-189.265c31.399-92.562,107.241-145.927,191.136-185.47
				C-868.738,235.235-815.484,221.622-793.005,217.009z"/>
		</defs>
		<clipPath id="SVGID_2_">
			<use xlink:href="#SVGID_1_"  overflow="visible"/>
		</clipPath>
		<linearGradient id="SVGID_3_" gradientUnits="userSpaceOnUse" x1="-448.7878" y1="-35.1959" x2="-606.0728" y2="636.5274">
			<stop  offset="0" style="stop-color:#005A87"/>
			<stop  offset="1" style="stop-color:#00A0E9"/>
		</linearGradient>
		<rect x="-1134.427" y="-130.302" clip-path="url(#SVGID_2_)" fill="url(#SVGID_3_)" width="1220.737" height="833.133"/>
	</g>
</g>
<g>
	<defs>
		<path id="SVGID_7_" d="M637.864,370.044c-95.712,37.924-60.446,18.447-175.48,102.356c-6.534,11.061-57.512,48.923-65.446,48.659
			c-0.079,0.093-17.172-3.067-18.257-27.107c1.75-78.857,105.457-142.776,150.909-171.409
			c138.271-117.879,14.6-270.556-112.126-190.241c-7.34,4.018-85.358,48.594-61.273,167.866c1.485,12.547-0.744,0.387,2.186,19.724
			c28.041-2.811,40.738,0.272,67.783,3.6c10.094,1.4,24.138,3.854,36.029,7.36c15.376,4.534,13.421,29.095-7.221,33.325
			l-78.18,20.719c-106.585,33.662-132.498,46.85-203.522,107.57c-99.809,96.399-19.261,201.896,137.01,154.117
			c0.444-0.286,117.572-44.506,237.377-185.902c4.636-7.631,20.438-36.968,44.907-35.796c38.205,8.128,19.97,46.655,7.257,76.454
			c-2.199,4.327-43.277,105.713-144.949,166.436c32.072,21.089,151.932-0.732,159.266-1.781
			C941.505,570.208,949.101,314.462,637.864,370.044 M294.995,326.918c-8.349-20.821-55.199-133.877,19.771-236.246
			C388.327-16.881,532.654-20.389,608.857,36.541c-0.581,0.18,115.163,69.009,93.562,225.596
			c368.709-16.397,471.892,358.264,33.62,496.264c-112.603,29.865-233.753,22.772-324.852-27.596
			C203.821,812.74-46.427,738.602,7.41,541.544c31.399-92.565,107.241-145.93,191.136-185.475
			C219.262,345.148,272.516,331.53,294.995,326.918z"/>
	</defs>
	<clipPath id="SVGID_5_">
		<use xlink:href="#SVGID_7_"  overflow="visible"/>
	</clipPath>
	<linearGradient id="SVGID_6_" gradientUnits="userSpaceOnUse" x1="639.2202" y1="74.6814" x2="481.9353" y2="746.4047">
		<stop  offset="0" style="stop-color:#005A87"/>
		<stop  offset="1" style="stop-color:#00A0E9"/>
	</linearGradient>
	<rect x="-46.427" y="-20.389" clip-path="url(#SVGID_5_)" fill="url(#SVGID_6_)" width="1220.737" height="833.13"/>
</g>
</svg>
