<?xml version="1.0" encoding="utf-8"?>
<!-- Generator: Adobe Illustrator 17.0.0, SVG Export Plug-In . SVG Version: 6.00 Build 0)  -->
<!DOCTYPE svg PUBLIC "-//W3C//DTD SVG 1.1//EN" "http://www.w3.org/Graphics/SVG/1.1/DTD/svg11.dtd">
<svg version="1.1" id="图层_1" xmlns="http://www.w3.org/2000/svg" xmlns:xlink="http://www.w3.org/1999/xlink" x="0px" y="0px"
	 width="1024px" height="282.664px" viewBox="0 0 1024 282.664" enable-background="new 0 0 1024 282.664" xml:space="preserve">
<g>
	<path fill="#898989" d="M554.763,154.252v-7.856h-83.126v7.856H554.763z M471.637,119.305v7.86h83.126v-7.86H471.637z
		 M590.951,184.236c0,0.826-0.138,2.894-0.415,6.204c-0.274,3.309-0.586,7.236-0.93,11.787c-0.346,4.548-0.758,9.339-1.242,14.369
		c-0.483,5.031-0.895,9.754-1.241,14.164c-0.343,4.414-0.688,8.169-1.032,11.27c-0.347,3.103-0.518,4.929-0.518,5.48
		c-0.689,5.241-1.653,9.479-2.894,12.717c-1.241,3.241-3.067,5.861-5.481,7.861c-2.411,1.996-5.445,3.481-9.098,4.444
		c-3.654,0.964-8.239,1.653-13.75,2.068l-19.438,1.654l-7.445-23.572l16.129-1.656c3.447-0.411,6.238-0.792,8.375-1.135
		c2.136-0.346,3.827-0.967,5.065-1.862c1.241-0.896,2.174-2.137,2.791-3.721c0.621-1.588,1.139-3.759,1.554-6.515
		c0.411-2.758,0.86-5.721,1.345-8.89c0.48-3.172,0.929-6.204,1.34-9.099c0.415-2.894,0.762-5.549,1.037-7.963
		c0.274-2.411,0.483-4.239,0.621-5.477h-15.718c-2.617,8.132-5.824,15.679-9.614,22.641c-3.792,6.962-8.339,13.543-13.649,19.748
		c-5.306,6.204-11.509,12.095-18.608,17.678c-7.099,5.583-15.268,10.995-24.504,16.233l-15.509-19.436
		c7.994-4.414,15.025-8.686,21.092-12.823c6.063-4.136,11.303-8.443,15.714-12.923c4.41-4.479,8.203-9.235,11.372-14.267
		c3.171-5.034,5.998-10.651,8.477-16.852h-16.335c-3.858,6.753-8.203,12.991-13.025,18.712c-4.826,5.72-10.306,11.097-16.441,16.129
		c-6.135,5.031-13.063,9.856-20.783,14.476c-7.72,4.617-16.403,9.201-26.054,13.752l-15.094-19.647
		c15.852-6.479,28.984-13.3,39.392-20.471c10.409-7.168,18.647-14.818,24.71-22.95h-17.782c-3.999,3.995-8.273,7.926-12.82,11.784
		c-4.55,3.861-9.445,7.789-14.681,11.787l-14.891-18.817c7.861-4.963,14.993-10.478,21.404-16.541
		c6.409-6.067,11.959-12.477,16.646-19.233H447.03V98.008h132.339v77.336h-100.08l6.409,2.895c-0.69,1.104-1.345,2.136-1.965,3.103
		c-0.621,0.964-1.275,1.931-1.965,2.895H590.951z"/>
	<path fill="#898989" d="M680.716,259.919c3.721-2.483,7.618-5.377,11.685-8.684c4.067-3.31,8.063-6.858,11.993-10.652
		c3.931-3.79,7.686-7.652,11.27-11.579c3.584-3.93,6.756-7.685,9.513-11.269l17.988,16.541c-3.169,3.999-6.581,7.998-10.235,11.993
		c-3.655,3.998-7.445,7.895-11.374,11.685c-3.927,3.793-7.961,7.445-12.096,10.961c-4.136,3.515-8.272,6.787-12.407,9.822
		L680.716,259.919z M770.875,217.115c3.447,3.031,7.168,6.376,11.167,10.027c3.995,3.652,7.96,7.343,11.89,11.064
		c3.926,3.72,7.651,7.374,11.167,10.961c3.515,3.584,6.512,6.821,8.992,9.715l-17.367,20.265c-2.346-3.031-5.241-6.547-8.687-10.546
		c-3.447-3.996-7.134-8.028-11.061-12.096c-3.929-4.067-7.86-8.028-11.787-11.889c-3.93-3.859-7.547-7.168-10.857-9.925
		L770.875,217.115z M734.892,152.393v39.494h26.884v-39.494H734.892z M709.665,127.782V93.666l25.227,1.032v33.085h26.884V93.666
		l25.022,1.032v33.085h19.023v24.611h-19.023v39.494h25.846v25.022H687.126v-25.022h22.539v-39.494H692.71v-24.611H709.665z
		 M692.919,98.628c-2.346,7.858-4.723,15.233-7.137,22.124c-2.41,6.894-4.997,13.581-7.754,20.06V277.91H652.8v-90.78
		c-1.79,2.758-3.652,5.481-5.583,8.169c-1.927,2.689-3.926,5.408-5.995,8.166l-14.681-22.95c3.721-4.963,7.582-10.857,11.578-17.683
		c3.999-6.821,7.86-14.198,11.582-22.124c3.721-7.926,7.236-16.163,10.546-24.709c3.309-8.55,6.134-16.959,8.477-25.227
		L692.919,98.628z"/>
	<path fill="#898989" d="M939.839,181.136c-3.169,5.512-6.685,11.304-10.546,17.367c-3.859,6.067-7.72,11.788-11.578,17.165
		c-3.862,5.375-7.48,10.166-10.859,14.371c-3.378,4.204-6.1,7.273-8.169,9.201c4.967-0.411,10.34-0.826,16.129-1.238
		c5.793-0.415,11.821-0.865,18.094-1.345c6.272-0.484,12.579-0.967,18.921-1.447c6.341-0.484,12.476-0.933,18.406-1.345
		c-3.309-5.24-6.687-10.477-10.135-15.718c-3.446-5.237-6.962-10.477-10.546-15.714l21.918-12.819
		c7.446,10.476,14.959,21.643,22.54,33.496c7.582,11.855,15.302,24.47,23.159,37.841l-21.503,15.718
		c-1.794-3.172-3.55-6.239-5.276-9.202c-1.721-2.965-3.48-5.963-5.271-8.996c-4.136,0.275-8.996,0.587-14.579,0.93
		c-5.583,0.347-11.581,0.758-17.991,1.241c-6.411,0.484-13.026,0.964-19.85,1.447c-6.825,0.484-13.509,0.964-20.06,1.448
		c-6.548,0.483-12.785,0.964-18.712,1.447c-5.929,0.483-11.167,0.933-15.718,1.345c-2.894,0.274-5.48,0.517-7.754,0.723
		c-2.273,0.206-4.582,0.518-6.927,0.93l-7.443-26.466c1.791-0.689,3.341-1.379,4.651-2.068c1.31-0.69,2.483-1.447,3.515-2.274
		c1.035-0.83,2.069-1.759,3.104-2.792c1.032-1.035,2.308-2.173,3.824-3.412c2.205-2.068,4.825-4.859,7.858-8.375
		c3.034-3.515,6.204-7.513,9.513-11.993c3.31-4.482,6.65-9.239,10.029-14.27c3.378-5.031,6.515-10.096,9.411-15.196h-59.763v-25.849
		H1024v25.849H939.839z M1006.218,126.544h-140.2v-25.849h140.2V126.544z"/>
	<g>
		<defs>
			<path id="SVGID_4_" d="M232.314,134.773c-34.859,13.812-22.014,6.719-63.91,37.28c-2.38,4.03-20.945,17.816-23.837,17.722
				c-0.028,0.031-6.253-1.12-6.646-9.875c0.636-28.722,38.406-52,54.962-62.427c50.359-42.935,5.315-98.54-40.839-69.289
				c-2.673,1.463-31.089,17.698-22.318,61.138c0.542,4.57-0.269,0.141,0.799,7.183c10.211-1.026,14.837,0.1,24.688,1.311
				c3.674,0.512,8.79,1.403,13.122,2.683c5.599,1.649,4.885,10.595-2.629,12.136l-28.478,7.545
				c-38.818,12.261-48.256,17.066-74.123,39.18c-36.351,35.109-7.015,73.53,49.899,56.129c0.163-0.103,42.822-16.207,86.457-67.708
				c1.688-2.779,7.443-13.462,16.353-13.038c13.916,2.963,7.275,16.993,2.642,27.848c-0.799,1.575-15.761,38.5-52.788,60.617
				c11.681,7.68,55.333-0.267,58.003-0.648C342.904,207.673,345.67,114.53,232.314,134.773 M107.439,119.065
				c-3.04-7.582-20.105-48.759,7.2-86.042C141.432-6.15,193.996-7.426,221.751,13.307c-0.213,0.066,41.942,25.135,34.076,82.164
				c134.285-5.97,171.868,130.483,12.242,180.746c-41.007,10.876-85.134,8.293-118.312-10.051
				c-75.524,29.841-166.668,2.839-147.058-68.932c11.435-33.712,39.057-53.148,69.614-67.551
				C79.858,125.706,99.253,120.747,107.439,119.065z"/>
		</defs>
		<clipPath id="SVGID_2_">
			<use xlink:href="#SVGID_4_"  overflow="visible"/>
		</clipPath>
		<linearGradient id="SVGID_3_" gradientUnits="userSpaceOnUse" x1="232.8369" y1="27.1906" x2="175.5077" y2="271.8016">
			<stop  offset="0" style="stop-color:#005A87"/>
			<stop  offset="1" style="stop-color:#00A0E9"/>
		</linearGradient>
		<rect x="-16.911" y="-7.426" clip-path="url(#SVGID_2_)" fill="url(#SVGID_3_)" width="444.606" height="303.433"/>
	</g>
</g>
</svg>
