<?xml version="1.0" encoding="utf-8"?>
<!-- Generator: Adobe Illustrator 17.0.0, SVG Export Plug-In . SVG Version: 6.00 Build 0)  -->
<!DOCTYPE svg PUBLIC "-//W3C//DTD SVG 1.1//EN" "http://www.w3.org/Graphics/SVG/1.1/DTD/svg11.dtd">
<svg version="1.1" id="图层_1" xmlns="http://www.w3.org/2000/svg" xmlns:xlink="http://www.w3.org/1999/xlink" x="0px" y="0px"
	 width="1024px" height="1024px" viewBox="0 0 1024 1024" enable-background="new 0 0 1024 1024" xml:space="preserve">
<g>
	<path fill="#FFFFFF" d="M637.863,370.044c-95.708,37.923-60.446,18.447-175.476,102.355c-6.534,11.063-57.511,48.924-65.45,48.66
		c-0.079,0.092-17.168-3.066-18.255-27.108c1.748-78.855,105.46-142.777,150.909-171.408
		C667.865,204.662,544.191,51.985,417.468,132.3c-7.345,4.017-85.358,48.593-61.277,167.867c1.489,12.547-0.741,0.387,2.19,19.723
		c28.036-2.81,40.737,0.274,67.783,3.6c10.095,1.402,24.135,3.855,36.03,7.362c15.371,4.534,13.419,29.095-7.221,33.324
		l-78.186,20.719c-106.581,33.664-132.499,46.855-203.523,107.573c-99.805,96.399-19.256,201.895,137.01,154.118
		c0.449-0.288,117.572-44.506,237.379-185.904c4.635-7.632,20.441-36.967,44.906-35.795c38.206,8.127,19.974,46.654,7.256,76.454
		c-2.199,4.327-43.272,105.712-144.949,166.435c32.077,21.09,151.937-0.731,159.271-1.78
		C941.506,570.208,949.101,314.463,637.863,370.044 M294.995,326.919c-8.347-20.822-55.202-133.879,19.769-236.248
		c73.56-107.554,217.888-111.06,294.095-54.126c-0.586,0.175,115.163,69.005,93.563,225.593
		c368.704-16.398,471.887,358.263,33.614,496.266c-112.599,29.866-233.753,22.772-324.848-27.598
		C203.818,812.741-46.43,738.604,7.411,541.545c31.399-92.567,107.241-145.932,191.137-185.477
		C219.264,345.147,272.514,331.53,294.995,326.919z"/>
	<path fill="#FFFFFF" d="M318.857,904.775v-7.296h-77.182v7.296H318.857z M241.675,872.328v7.295h77.182v-7.295H241.675z
		 M352.454,932.614c0,0.766-0.128,2.687-0.384,5.758c-0.255,3.076-0.545,6.724-0.862,10.943c-0.322,4.226-0.706,8.675-1.155,13.345
		c-0.444,4.67-0.833,9.055-1.15,13.151c-0.322,4.097-0.639,7.586-0.96,10.463c-0.322,2.881-0.48,4.577-0.48,5.088
		c-0.638,4.864-1.537,8.798-2.687,11.807c-1.155,3.009-2.851,5.441-5.088,7.295c-2.238,1.856-5.057,3.234-8.445,4.128
		c-3.393,0.895-7.649,1.537-12.768,1.921l-18.049,1.537l-6.913-21.886l14.975-1.537c3.203-0.384,5.794-0.737,7.776-1.058
		c1.988-0.317,3.556-0.894,4.706-1.727c1.153-0.833,2.017-1.983,2.589-3.453c0.578-1.477,1.059-3.489,1.441-6.049
		c0.384-2.56,0.802-5.314,1.251-8.256c0.446-2.944,0.864-5.759,1.248-8.45c0.382-2.687,0.704-5.151,0.96-7.389
		c0.255-2.243,0.444-3.939,0.572-5.088h-14.591c-2.432,7.552-5.406,14.561-8.926,21.024s-7.746,12.573-12.671,18.337
		c-4.93,5.758-10.688,11.229-17.278,16.415c-6.596,5.18-14.177,10.203-22.75,15.066l-14.403-18.046
		c7.424-4.097,13.954-8.061,19.583-11.904c5.631-3.837,10.494-7.837,14.592-12c4.097-4.159,7.617-8.574,10.559-13.243
		c2.944-4.675,5.568-9.891,7.873-15.649h-15.169c-3.581,6.269-7.617,12.062-12.093,17.376c-4.481,5.309-9.57,10.3-15.265,14.975
		c-5.696,4.67-12.129,9.15-19.297,13.438c-7.168,4.29-15.229,8.546-24.191,12.766l-14.014-18.238
		c14.72-6.013,26.909-12.35,36.575-19.006c9.663-6.657,17.311-13.758,22.944-21.31h-16.512c-3.714,3.71-7.679,7.357-11.904,10.943
		c-4.226,3.582-8.767,7.23-13.632,10.945l-13.825-17.474c7.296-4.608,13.923-9.728,19.874-15.357
		c5.948-5.631,11.103-11.582,15.455-17.857h-11.137v-71.807h122.877v71.807h-92.927l5.953,2.687
		c-0.639,1.027-1.246,1.983-1.825,2.881c-0.572,0.894-1.18,1.794-1.823,2.687H352.454z"/>
	<path fill="#FFFFFF" d="M473.133,1002.884c3.458-2.305,7.07-4.992,10.845-8.068c3.781-3.07,7.49-6.366,11.137-9.885
		c3.649-3.52,7.139-7.103,10.465-10.75c3.326-3.648,6.273-7.137,8.832-10.463l16.702,15.357c-2.942,3.715-6.11,7.425-9.503,11.138
		c-3.393,3.71-6.913,7.327-10.561,10.847c-3.647,3.52-7.392,6.913-11.229,10.172c-3.842,3.266-7.679,6.305-11.521,9.12
		L473.133,1002.884z M556.844,963.139c3.199,2.816,6.652,5.922,10.366,9.314c3.713,3.388,7.392,6.815,11.039,10.269
		c3.648,3.455,7.103,6.846,10.367,10.177c3.265,3.327,6.049,6.336,8.353,9.024l-16.129,18.817c-2.176-2.821-4.863-6.08-8.062-9.794
		c-3.203-3.71-6.627-7.454-10.275-11.229c-3.648-3.777-7.295-7.459-10.943-11.041c-3.648-3.585-7.005-6.656-10.08-9.216
		L556.844,963.139z M523.436,903.048v36.668h24.957v-36.668H523.436z M500.011,880.2v-31.681l23.425,0.96v30.72h24.957v-31.681
		l23.23,0.96v30.72h17.667v22.848h-17.667v36.668h24.002v23.23H479.084v-23.23h20.927v-36.668h-15.741V880.2H500.011z
		 M484.458,853.127c-2.171,7.297-4.383,14.143-6.621,20.544c-2.238,6.402-4.639,12.609-7.199,18.623v127.292h-23.425v-84.284
		c-1.664,2.56-3.391,5.089-5.185,7.583c-1.789,2.498-3.648,5.026-5.564,7.586l-13.632-21.314
		c3.455-4.604,7.036-10.076,10.751-16.416c3.714-6.335,7.295-13.181,10.749-20.543c3.46-7.358,6.723-15.006,9.794-22.94
		c3.071-7.934,5.696-15.745,7.872-23.425L484.458,853.127z"/>
	<path fill="#FFFFFF" d="M751.055,929.732c-2.947,5.119-6.208,10.498-9.793,16.129c-3.582,5.631-7.168,10.943-10.751,15.935
		c-3.585,4.991-6.942,9.441-10.079,13.345c-3.138,3.903-5.666,6.75-7.587,8.542c4.608-0.382,9.6-0.766,14.979-1.153
		c5.376-0.384,10.974-0.797,16.799-1.248c5.824-0.449,11.678-0.894,17.564-1.343c5.89-0.449,11.588-0.864,17.09-1.246
		c-3.072-4.864-6.208-9.728-9.411-14.592c-3.199-4.864-6.462-9.728-9.789-14.591l20.35-11.904
		c6.912,9.727,13.891,20.094,20.925,31.102c7.041,11.005,14.209,22.721,21.504,35.136l-19.965,14.591
		c-1.666-2.946-3.296-5.794-4.896-8.547c-1.597-2.749-3.232-5.534-4.894-8.349c-3.842,0.257-8.352,0.543-13.539,0.864
		c-5.18,0.317-10.749,0.704-16.701,1.15c-5.952,0.449-12.099,0.898-18.433,1.343c-6.335,0.449-12.542,0.898-18.622,1.345
		c-6.08,0.449-11.873,0.898-17.376,1.343c-5.502,0.449-10.366,0.869-14.591,1.251c-2.686,0.256-5.088,0.48-7.199,0.67
		c-2.111,0.195-4.255,0.48-6.432,0.864l-6.912-24.575c1.665-0.639,3.106-1.277,4.322-1.921c1.216-0.639,2.304-1.343,3.264-2.111
		c0.956-0.766,1.916-1.629,2.877-2.589c0.96-0.96,2.146-2.019,3.551-3.167c2.049-1.921,4.481-4.512,7.296-7.777
		c2.819-3.264,5.763-6.978,8.833-11.138c3.072-4.159,6.178-8.573,9.314-13.246c3.131-4.67,6.044-9.377,8.737-14.112h-55.489v-23.997
		h163.193v23.997H751.055z M812.685,879.047H682.514v-23.998h130.172V879.047z"/>
</g>
</svg>
