<?xml version="1.0" encoding="utf-8"?>
<!-- Generator: Adobe Illustrator 17.0.0, SVG Export Plug-In . SVG Version: 6.00 Build 0)  -->
<!DOCTYPE svg PUBLIC "-//W3C//DTD SVG 1.1//EN" "http://www.w3.org/Graphics/SVG/1.1/DTD/svg11.dtd">
<svg version="1.1" id="图层_1" xmlns="http://www.w3.org/2000/svg" xmlns:xlink="http://www.w3.org/1999/xlink" x="0px" y="0px"
	 width="1024px" height="323.744px" viewBox="0 0 1024 323.744" enable-background="new 0 0 1024 323.744" xml:space="preserve">
<g>
	<path fill="#FFFFFF" d="M232.345,107.1V93.843H92.102V107.1H232.345z M92.102,48.139v13.263h140.242V48.139H92.102z
		 M293.397,157.686c0,1.394-0.23,4.884-0.7,10.467c-0.462,5.584-0.989,12.21-1.566,19.886c-0.586,7.673-1.279,15.755-2.096,24.245
		c-0.815,8.487-1.509,16.455-2.094,23.896c-0.579,7.446-1.163,13.782-1.742,19.011c-0.585,5.237-0.875,8.315-0.875,9.247
		c-1.161,8.84-2.789,15.992-4.882,21.455c-2.094,5.467-5.174,9.887-9.247,13.26c-4.067,3.368-9.187,5.872-15.349,7.498
		c-6.163,1.627-13.899,2.79-23.196,3.49l-32.796,2.788l-12.56-39.767l27.212-2.796c5.814-0.694,10.524-1.336,14.128-1.914
		c3.604-0.585,6.457-1.632,8.546-3.143c2.094-1.509,3.668-3.603,4.71-6.277c1.047-2.679,1.921-6.341,2.621-10.994
		c0.695-4.652,1.451-9.652,2.268-14.998c0.809-5.352,1.567-10.467,2.263-15.349c0.7-4.884,1.283-9.362,1.747-13.435
		c0.462-4.067,0.815-7.153,1.047-9.241h-26.517c-4.414,13.719-9.824,26.455-16.218,38.2c-6.398,11.745-14.072,22.849-23.029,33.315
		c-8.952,10.467-19.419,20.408-31.394,29.828c-11.978,9.419-25.761,18.55-41.342,27.384l-26.164-32.788
		c13.487-7.446,25.347-14.656,35.583-21.635c10.229-6.976,19.07-14.245,26.512-21.802c7.441-7.555,13.841-15.581,19.186-24.068
		c5.353-8.494,10.12-17.972,14.303-28.433h-27.559c-6.51,11.393-13.841,21.917-21.975,31.569
		c-8.141,9.652-17.387,18.724-27.739,27.212c-10.35,8.487-22.038,16.63-35.063,24.423c-13.025,7.788-27.673,15.524-43.957,23.202
		L0,268.274c26.744-10.929,48.899-22.439,66.459-34.537c17.56-12.093,31.46-25,41.688-38.72H78.147
		c-6.746,6.741-13.957,13.372-21.628,19.88c-7.678,6.516-15.936,13.142-24.77,19.888L6.626,203.036
		c13.263-8.372,25.296-17.675,36.111-27.906c10.814-10.235,20.176-21.05,28.085-32.447H50.589V12.208h223.27v130.476H105.012
		l10.814,4.882c-1.163,1.864-2.268,3.605-3.315,5.237c-1.047,1.624-2.152,3.256-3.317,4.882H293.397z"/>
	<path fill="#FFFFFF" d="M444.844,285.371c6.277-4.188,12.85-9.072,19.712-14.651c6.863-5.582,13.604-11.571,20.233-17.971
		c6.631-6.393,12.967-12.907,19.013-19.533c6.046-6.631,11.399-12.968,16.051-19.014l30.347,27.906
		c-5.347,6.746-11.104,13.493-17.266,20.235c-6.169,6.746-12.563,13.318-19.191,19.712c-6.626,6.399-13.43,12.561-20.408,18.492
		c-6.979,5.932-13.957,11.45-20.934,16.571L444.844,285.371z M596.95,213.156c5.815,5.114,12.093,10.756,18.84,16.92
		c6.741,6.161,13.429,12.386,20.06,18.665c6.626,6.278,12.908,12.44,18.84,18.492c5.929,6.046,10.986,11.508,15.171,16.392
		l-29.3,34.19c-3.958-5.116-8.84-11.046-14.656-17.792c-5.815-6.742-12.036-13.547-18.66-20.408
		c-6.631-6.861-13.262-13.545-19.888-20.061c-6.63-6.509-12.734-12.093-18.317-16.745L596.95,213.156z M536.246,103.962v66.633
		h45.354v-66.633H536.246z M493.683,62.443V4.884l42.563,1.742v55.817h45.354V4.884l42.216,1.742v55.817h32.093v41.519h-32.093
		v66.633h43.603v42.213H455.658v-42.213h38.025v-66.633h-28.606V62.443H493.683z M465.429,13.255
		c-3.958,13.257-7.968,25.702-12.04,37.328c-4.068,11.629-8.43,22.912-13.083,33.841v231.301h-42.561V162.57
		c-3.022,4.652-6.164,9.245-9.422,13.782c-3.251,4.535-6.624,9.125-10.114,13.777l-24.769-38.721
		c6.277-8.372,12.794-18.317,19.534-29.831c6.746-11.51,13.26-23.956,19.539-37.325c6.278-13.372,12.208-27.269,17.792-41.688
		C415.889,28.138,420.658,13.951,424.609,0L465.429,13.255z"/>
	<path fill="#FFFFFF" d="M882.013,152.456c-5.347,9.297-11.279,19.07-17.793,29.3c-6.511,10.235-13.025,19.886-19.533,28.959
		c-6.516,9.067-12.62,17.15-18.32,24.243c-5.699,7.093-10.292,12.271-13.782,15.523c8.378-0.694,17.445-1.394,27.211-2.088
		c9.773-0.7,19.946-1.458,30.527-2.268c10.582-0.815,21.223-1.632,31.922-2.441c10.699-0.815,21.049-1.574,31.052-2.269
		c-5.583-8.84-11.281-17.675-17.098-26.517c-5.814-8.835-11.743-17.675-17.789-26.512l36.978-21.627
		c12.56,17.677,25.238,36.516,38.025,56.512c12.792,20.003,25.817,41.283,39.073,63.843l-36.279,26.517
		c-3.026-5.352-5.988-10.524-8.898-15.524c-2.905-5.005-5.874-10.062-8.894-15.176c-6.979,0.462-15.176,0.99-24.597,1.567
		c-9.419,0.585-19.539,1.279-30.352,2.096c-10.816,0.815-21.977,1.627-33.49,2.441c-11.513,0.815-22.792,1.627-33.843,2.441
		c-11.046,0.817-21.57,1.627-31.569,2.441c-10.003,0.817-18.84,1.574-26.515,2.269c-4.885,0.464-9.247,0.874-13.083,1.221
		c-3.838,0.347-7.732,0.872-11.689,1.569l-12.557-44.651c3.021-1.164,5.636-2.326,7.848-3.49c2.208-1.163,4.188-2.441,5.929-3.835
		c1.748-1.4,3.49-2.969,5.237-4.71c1.742-1.747,3.894-3.668,6.451-5.757c3.721-3.49,8.141-8.2,13.257-14.129
		c5.12-5.932,10.466-12.678,16.049-20.236c5.584-7.561,11.22-15.587,16.919-24.074c5.699-8.488,10.992-17.035,15.877-25.638H727.462
		v-43.609H1024v43.609H882.013z M993.999,60.355H757.468v-43.61h236.531V60.355z"/>
</g>
</svg>
