<?xml version="1.0" encoding="utf-8"?>
<!-- Generator: Adobe Illustrator 17.0.0, SVG Export Plug-In . SVG Version: 6.00 Build 0)  -->
<!DOCTYPE svg PUBLIC "-//W3C//DTD SVG 1.1//EN" "http://www.w3.org/Graphics/SVG/1.1/DTD/svg11.dtd">
<svg version="1.1" id="图层_1" xmlns="http://www.w3.org/2000/svg" xmlns:xlink="http://www.w3.org/1999/xlink" x="0px" y="0px"
	 width="1024px" height="1024px" viewBox="0 0 1024 1024" enable-background="new 0 0 1024 1024" xml:space="preserve">
<g>
	<g>
		<defs>
			<path id="SVGID_1_" d="M637.864,370.042c-95.712,37.924-60.446,18.451-175.48,102.359c-6.534,11.063-57.512,48.92-65.446,48.66
				c-0.079,0.093-17.172-3.066-18.257-27.111c1.75-78.857,105.456-142.778,150.909-171.405
				c138.271-117.881,14.6-270.556-112.126-190.243c-7.34,4.017-85.358,48.59-61.273,167.867c1.485,12.547-0.744,0.382,2.186,19.722
				c28.041-2.815,40.738,0.274,67.783,3.599c10.094,1.402,24.138,3.856,36.029,7.362c15.376,4.534,13.421,29.09-7.221,33.319
				l-78.18,20.726c-106.585,33.662-132.498,46.848-203.522,107.57c-99.809,96.394-19.261,201.896,137.01,154.117
				c0.444-0.286,117.572-44.506,237.377-185.904c4.636-7.63,20.438-36.967,44.907-35.799c38.205,8.128,19.97,46.66,7.257,76.459
				c-2.199,4.327-43.277,105.709-144.949,166.434c32.072,21.086,151.932-0.735,159.266-1.78
				C941.505,570.207,949.101,314.466,637.864,370.042 M294.995,326.921c-8.349-20.826-55.199-133.877,19.771-236.246
				C388.327-16.883,532.654-20.391,608.856,36.543c-0.581,0.182,115.163,69.009,93.562,225.598
				c368.709-16.397,471.891,358.262,33.62,496.264c-112.603,29.861-233.753,22.767-324.852-27.596
				C203.821,812.742-46.427,738.601,7.41,541.543c31.399-92.562,107.241-145.927,191.136-185.47
				C219.262,345.147,272.516,331.533,294.995,326.921z"/>
		</defs>
		<clipPath id="SVGID_2_">
			<use xlink:href="#SVGID_1_"  overflow="visible"/>
		</clipPath>
		<linearGradient id="SVGID_3_" gradientUnits="userSpaceOnUse" x1="639.2122" y1="74.7156" x2="481.9272" y2="746.439">
			<stop  offset="0" style="stop-color:#005A87"/>
			<stop  offset="1" style="stop-color:#00A0E9"/>
		</linearGradient>
		<rect x="-46.427" y="-20.391" clip-path="url(#SVGID_2_)" fill="url(#SVGID_3_)" width="1220.737" height="833.133"/>
	</g>
	<path fill="#898989" d="M318.855,904.775v-7.295h-77.181v7.295H318.855z M241.673,872.328v7.295h77.181v-7.295H241.673z
		 M352.452,932.614c0,0.768-0.128,2.687-0.384,5.758c-0.255,3.076-0.545,6.724-0.863,10.943c-0.322,4.226-0.706,8.676-1.155,13.346
		c-0.444,4.669-0.833,9.053-1.15,13.15c-0.322,4.097-0.639,7.586-0.96,10.463c-0.322,2.882-0.48,4.579-0.48,5.089
		c-0.639,4.865-1.537,8.798-2.687,11.807c-1.153,3.009-2.85,5.441-5.088,7.295c-2.238,1.856-5.057,3.234-8.445,4.128
		c-3.391,0.895-7.648,1.539-12.768,1.921l-18.049,1.539l-6.913-21.888l14.975-1.537c3.203-0.384,5.794-0.737,7.776-1.058
		c1.988-0.317,3.556-0.894,4.706-1.727c1.154-0.831,2.018-1.982,2.591-3.453c0.577-1.477,1.057-3.489,1.439-6.049
		c0.384-2.56,0.802-5.314,1.253-8.256c0.444-2.944,0.863-5.758,1.246-8.45c0.382-2.687,0.704-5.15,0.96-7.389
		c0.255-2.242,0.444-3.938,0.572-5.088h-14.591c-2.433,7.552-5.406,14.561-8.926,21.023c-3.52,6.464-7.744,12.573-12.671,18.336
		c-4.93,5.758-10.687,11.231-17.278,16.415c-6.596,5.18-14.177,10.203-22.75,15.066l-14.403-18.044
		c7.424-4.098,13.954-8.063,19.583-11.905c5.631-3.837,10.494-7.836,14.592-12c4.097-4.159,7.617-8.573,10.559-13.243
		c2.944-4.675,5.569-9.891,7.873-15.649h-15.169c-3.581,6.269-7.617,12.063-12.093,17.376c-4.481,5.309-9.569,10.301-15.265,14.975
		c-5.696,4.67-12.129,9.151-19.297,13.438c-7.168,4.291-15.23,8.546-24.191,12.768l-14.014-18.24
		c14.72-6.013,26.91-12.348,36.575-19.006c9.662-6.657,17.311-13.758,22.945-21.309h-16.512c-3.715,3.71-7.679,7.357-11.904,10.945
		c-4.226,3.581-8.767,7.229-13.632,10.943l-13.825-17.472c7.295-4.608,13.923-9.727,19.873-15.358
		c5.948-5.631,11.103-11.582,15.455-17.856h-11.138v-71.807h122.876v71.807h-92.927l5.952,2.687
		c-0.638,1.027-1.246,1.983-1.824,2.881c-0.572,0.896-1.18,1.794-1.823,2.687H352.452z"/>
	<path fill="#898989" d="M473.13,1002.884c3.458-2.305,7.07-4.992,10.847-8.066c3.78-3.071,7.488-6.366,11.136-9.886
		c3.649-3.52,7.138-7.103,10.465-10.75c3.326-3.648,6.273-7.137,8.832-10.463l16.701,15.357c-2.942,3.715-6.109,7.424-9.502,11.137
		c-3.393,3.71-6.913,7.327-10.561,10.847c-3.648,3.52-7.392,6.913-11.229,10.174c-3.842,3.264-7.679,6.304-11.521,9.118
		L473.13,1002.884z M556.841,963.142c3.198,2.815,6.652,5.92,10.366,9.313c3.713,3.388,7.392,6.815,11.039,10.27
		c3.648,3.453,7.103,6.846,10.366,10.177c3.266,3.326,6.049,6.335,8.354,9.022l-16.13,18.817c-2.176-2.819-4.863-6.08-8.061-9.795
		c-3.203-3.708-6.627-7.454-10.275-11.229c-3.648-3.775-7.296-7.459-10.943-11.041c-3.648-3.586-7.005-6.657-10.081-9.216
		L556.841,963.142z M523.434,903.049v36.668h24.957v-36.668H523.434z M500.009,880.202v-31.681l23.425,0.96v30.72h24.957v-31.681
		l23.23,0.96v30.72h17.666v22.847h-17.666v36.668h24.002v23.23H479.081v-23.23h20.927v-36.668h-15.741v-22.847H500.009z
		 M484.456,853.13c-2.171,7.295-4.383,14.141-6.621,20.544c-2.238,6.4-4.64,12.607-7.199,18.622v127.29h-23.425v-84.284
		c-1.665,2.559-3.391,5.088-5.185,7.583c-1.789,2.498-3.647,5.026-5.564,7.586l-13.632-21.314
		c3.455-4.604,7.036-10.076,10.751-16.416c3.715-6.335,7.295-13.181,10.751-20.543c3.458-7.358,6.722-15.006,9.793-22.94
		s5.696-15.745,7.872-23.425L484.456,853.13z"/>
	<path fill="#898989" d="M751.052,929.733c-2.947,5.12-6.208,10.499-9.793,16.129c-3.582,5.631-7.168,10.943-10.751,15.935
		c-3.586,4.992-6.943,9.442-10.079,13.345c-3.136,3.904-5.666,6.75-7.586,8.543c4.608-0.384,9.599-0.768,14.978-1.155
		c5.377-0.384,10.974-0.797,16.8-1.246c5.824-0.449,11.678-0.895,17.565-1.344c5.889-0.449,11.586-0.864,17.088-1.246
		c-3.071-4.865-6.207-9.728-9.41-14.591c-3.199-4.864-6.463-9.728-9.789-14.592l20.349-11.904
		c6.912,9.728,13.891,20.094,20.927,31.104c7.039,11.005,14.206,22.719,21.502,35.134l-19.965,14.591
		c-1.666-2.947-3.294-5.792-4.894-8.546c-1.599-2.749-3.235-5.533-4.896-8.349c-3.842,0.256-8.352,0.542-13.539,0.864
		c-5.18,0.317-10.749,0.704-16.701,1.15c-5.952,0.449-12.099,0.898-18.433,1.343c-6.335,0.449-12.542,0.9-18.622,1.344
		c-6.081,0.449-11.873,0.898-17.377,1.343c-5.501,0.451-10.366,0.869-14.591,1.253c-2.687,0.255-5.088,0.48-7.199,0.668
		c-2.111,0.194-4.255,0.48-6.432,0.864l-6.912-24.575c1.665-0.639,3.105-1.278,4.322-1.921c1.215-0.639,2.303-1.343,3.264-2.109
		c0.955-0.768,1.916-1.63,2.876-2.591c0.961-0.96,2.147-2.017,3.552-3.167c2.049-1.921,4.481-4.512,7.296-7.776
		c2.819-3.265,5.763-6.978,8.834-11.137c3.069-4.159,6.176-8.575,9.312-13.248c3.131-4.67,6.045-9.375,8.736-14.112h-55.488v-23.997
		H829.19v23.997H751.052z M812.682,879.047H682.51V855.05h130.171V879.047z"/>
</g>
</svg>
