<?xml version="1.0" encoding="utf-8"?>
<!-- Generator: Adobe Illustrator 17.0.0, SVG Export Plug-In . SVG Version: 6.00 Build 0)  -->
<!DOCTYPE svg PUBLIC "-//W3C//DTD SVG 1.1//EN" "http://www.w3.org/Graphics/SVG/1.1/DTD/svg11.dtd">
<svg version="1.1" id="图层_1" xmlns="http://www.w3.org/2000/svg" xmlns:xlink="http://www.w3.org/1999/xlink" x="0px" y="0px"
	 width="1024px" height="282.664px" viewBox="0 0 1024 282.664" enable-background="new 0 0 1024 282.664" xml:space="preserve">
<g>
	<path fill="#FFFFFF" d="M554.763,154.251v-7.856h-83.126v7.856H554.763z M471.637,119.304v7.86h83.126v-7.86H471.637z
		 M590.95,184.236c0,0.826-0.136,2.894-0.415,6.204c-0.274,3.309-0.586,7.236-0.928,11.787c-0.347,4.548-0.758,9.339-1.242,14.369
		c-0.483,5.031-0.895,9.754-1.241,14.164c-0.343,4.414-0.689,8.169-1.032,11.27c-0.347,3.103-0.518,4.928-0.518,5.48
		c-0.688,5.24-1.653,9.479-2.894,12.717c-1.241,3.241-3.067,5.86-5.481,7.86c-2.41,1.996-5.445,3.482-9.098,4.445
		c-3.653,0.964-8.239,1.653-13.749,2.068l-19.439,1.653l-7.445-23.571l16.129-1.656c3.446-0.411,6.238-0.792,8.374-1.136
		c2.136-0.347,3.828-0.967,5.065-1.862c1.241-0.896,2.174-2.137,2.792-3.721c0.621-1.588,1.138-3.759,1.553-6.516
		c0.412-2.757,0.86-5.72,1.345-8.889c0.479-3.172,0.929-6.204,1.341-9.099c0.415-2.895,0.76-5.549,1.036-7.963
		c0.274-2.411,0.483-4.239,0.621-5.478h-15.718c-2.617,8.132-5.823,15.68-9.613,22.642c-3.793,6.962-8.341,13.543-13.65,19.747
		c-5.306,6.204-11.51,12.096-18.608,17.679c-7.1,5.583-15.269,10.995-24.504,16.233l-15.508-19.436
		c7.994-4.414,15.024-8.688,21.091-12.823c6.063-4.136,11.303-8.444,15.714-12.923c4.41-4.48,8.204-9.236,11.372-14.267
		c3.173-5.034,5.998-10.651,8.478-16.853h-16.335c-3.858,6.753-8.204,12.992-13.025,18.713c-4.826,5.72-10.306,11.097-16.442,16.128
		c-6.134,5.032-13.063,9.857-20.783,14.477c-7.72,4.616-16.403,9.201-26.054,13.752l-15.094-19.647
		c15.852-6.479,28.984-13.3,39.392-20.471c10.409-7.168,18.647-14.82,24.71-22.951h-17.782c-3.999,3.996-8.273,7.926-12.82,11.785
		c-4.551,3.861-9.446,7.788-14.682,11.787l-14.891-18.818c7.861-4.962,14.994-10.477,21.404-16.541
		c6.41-6.066,11.959-12.476,16.647-19.232H447.03V98.007h132.339v77.336H479.288l6.41,2.894c-0.689,1.105-1.345,2.137-1.965,3.104
		c-0.621,0.964-1.275,1.931-1.966,2.895H590.95z"/>
	<path fill="#FFFFFF" d="M680.717,259.918c3.721-2.483,7.617-5.378,11.684-8.683c4.068-3.31,8.063-6.86,11.993-10.653
		c3.93-3.79,7.686-7.651,11.27-11.578c3.584-3.929,6.756-7.685,9.514-11.269l17.988,16.541c-3.169,3.999-6.582,7.997-10.234,11.993
		c-3.656,3.999-7.446,7.894-11.375,11.685c-3.928,3.792-7.961,7.445-12.096,10.96c-4.136,3.516-8.273,6.788-12.408,9.823
		L680.717,259.918z M770.875,217.115c3.447,3.031,7.168,6.375,11.167,10.027c3.995,3.652,7.96,7.343,11.89,11.063
		c3.928,3.721,7.651,7.374,11.167,10.961c3.515,3.584,6.512,6.822,8.992,9.716l-17.367,20.265c-2.346-3.031-5.24-6.547-8.687-10.546
		c-3.447-3.995-7.134-8.028-11.06-12.096c-3.93-4.067-7.861-8.028-11.788-11.889c-3.93-3.859-7.548-7.168-10.857-9.925
		L770.875,217.115z M734.894,152.392v39.494h26.883v-39.494H734.894z M709.665,127.782V93.664l25.228,1.032v33.085h26.883V93.664
		l25.023,1.032v33.085h19.023v24.611h-19.023v39.494h25.845v25.021H687.127v-25.021h22.539v-39.494H692.71v-24.611H709.665z
		 M692.919,98.627c-2.346,7.856-4.723,15.233-7.137,22.124c-2.411,6.894-4.997,13.581-7.754,20.06V277.91h-25.227v-90.78
		c-1.791,2.758-3.654,5.481-5.584,8.169c-1.927,2.688-3.926,5.408-5.995,8.166l-14.681-22.95
		c3.721-4.963,7.583-10.859,11.579-17.683c3.999-6.821,7.86-14.198,11.581-22.124c3.721-7.926,7.236-16.163,10.546-24.71
		c3.309-8.55,6.136-16.959,8.478-25.228L692.919,98.627z"/>
	<path fill="#FFFFFF" d="M939.84,181.135c-3.169,5.512-6.685,11.304-10.546,17.367c-3.859,6.067-7.72,11.787-11.578,17.164
		c-3.862,5.374-7.48,10.165-10.859,14.37c-3.378,4.206-6.1,7.275-8.169,9.202c4.966-0.413,10.34-0.827,16.129-1.239
		c5.793-0.415,11.822-0.864,18.094-1.344c6.272-0.484,12.579-0.967,18.921-1.448c6.341-0.483,12.477-0.932,18.405-1.344
		c-3.309-5.241-6.687-10.478-10.135-15.718c-3.446-5.238-6.961-10.477-10.544-15.714l21.918-12.82
		c7.445,10.478,14.959,21.644,22.539,33.498c7.582,11.855,15.303,24.469,23.16,37.841l-21.504,15.716
		c-1.794-3.171-3.549-6.238-5.274-9.201c-1.722-2.966-3.482-5.964-5.271-8.996c-4.136,0.275-8.996,0.586-14.579,0.93
		c-5.583,0.346-11.581,0.758-17.99,1.241c-6.411,0.483-13.027,0.964-19.851,1.447c-6.824,0.484-13.509,0.964-20.06,1.448
		c-6.548,0.483-12.785,0.963-18.712,1.447c-5.929,0.483-11.167,0.932-15.716,1.345c-2.895,0.274-5.481,0.517-7.754,0.723
		c-2.275,0.206-4.583,0.518-6.928,0.93l-7.443-26.466c1.79-0.69,3.341-1.379,4.652-2.068c1.309-0.69,2.482-1.448,3.515-2.275
		c1.036-0.829,2.069-1.759,3.104-2.792c1.032-1.035,2.308-2.174,3.823-3.412c2.206-2.068,4.826-4.859,7.858-8.375
		c3.035-3.516,6.204-7.514,9.513-11.993c3.31-4.483,6.65-9.239,10.029-14.271c3.378-5.031,6.515-10.096,9.411-15.196h-59.763
		v-25.849H1024v25.849H939.84z M1006.218,126.543H866.019v-25.849h140.199V126.543z"/>
	<path fill="#FFFFFF" d="M232.317,134.772c-34.859,13.814-22.015,6.719-63.91,37.279c-2.38,4.031-20.949,17.817-23.837,17.723
		c-0.028,0.034-6.253-1.117-6.65-9.872c0.636-28.721,38.409-52.002,54.962-62.429c50.362-42.932,5.318-98.54-40.835-69.289
		c-2.676,1.462-31.089,17.698-22.318,61.138c0.539,4.572-0.272,0.14,0.795,7.183c10.212-1.023,14.838,0.1,24.688,1.313
		c3.678,0.508,8.793,1.404,13.122,2.679c5.6,1.654,4.888,10.596-2.629,12.137l-28.475,7.548
		c-38.818,12.258-48.256,17.061-74.123,39.176c-36.351,35.109-7.015,73.534,49.899,56.132c0.163-0.102,42.82-16.21,86.454-67.707
		c1.688-2.779,7.446-13.466,16.357-13.038c13.915,2.96,7.274,16.993,2.641,27.845c-0.801,1.578-15.76,38.503-52.791,60.617
		c11.68,7.683,55.336-0.265,58.006-0.648C342.907,207.675,345.673,114.532,232.317,134.772 M107.44,119.066
		c-3.038-7.586-20.103-48.758,7.202-86.044c26.79-39.171,79.357-40.449,107.11-19.713c-0.211,0.065,41.944,25.133,34.077,82.164
		c134.285-5.973,171.865,130.483,12.243,180.745c-41.011,10.874-85.135,8.291-118.313-10.053
		c-75.527,29.841-166.668,2.839-147.062-68.93c11.435-33.714,39.059-53.15,69.614-67.551
		C79.857,125.704,99.252,120.745,107.44,119.066z"/>
</g>
</svg>
